<?xml version="1.0" encoding="UTF-8" standalone="no"?>
<svg
   width="456"
   height="456"
   viewBox="0 0 456 456"
   version="1.1"
   xml:space="preserve"
   style="fill-rule:evenodd;clip-rule:evenodd;stroke-linejoin:round;stroke-miterlimit:2;"
   id="svg4"
   sodipodi:docname="appiconfg.svg"
   inkscape:version="1.4 (86a8ad7, 2024-10-11)"
   xmlns:inkscape="http://www.inkscape.org/namespaces/inkscape"
   xmlns:sodipodi="http://sodipodi.sourceforge.net/DTD/sodipodi-0.dtd"
   xmlns="http://www.w3.org/2000/svg"
   xmlns:svg="http://www.w3.org/2000/svg"><defs
   id="defs4" /><sodipodi:namedview
   id="namedview4"
   pagecolor="#ffffff"
   bordercolor="#000000"
   borderopacity="0.25"
   inkscape:showpageshadow="2"
   inkscape:pageopacity="0.0"
   inkscape:pagecheckerboard="0"
   inkscape:deskcolor="#d1d1d1"
   inkscape:zoom="0.84758772"
   inkscape:cx="321.50065"
   inkscape:cy="300.26391"
   inkscape:window-width="1920"
   inkscape:window-height="991"
   inkscape:window-x="-9"
   inkscape:window-y="-9"
   inkscape:window-maximized="1"
   inkscape:current-layer="svg4" />
    
    
    
    
<g
   id="g2"
   transform="matrix(2.192269,0,0,2.192269,0.29611092,-84.644019)"><path
     fill="#a3365a"
     opacity="1"
     stroke="none"
     d="m 4.3725259,149.63614 c 0,-4.50345 0,-9.00689 0.10074,-13.68615 0.47365,-3.30051 0.71154,-6.44888 1.25417,-9.5438 0.65537,-3.73792 1.56903,-7.43055 2.47465,-11.12998 0.23007,0.0503 0.354,0.10361 0.48303,0.12297 4.9771901,0.74664 9.9510401,1.51695 14.9335051,2.22671 5.112335,0.72827 10.223366,1.48251 15.35278,2.06977 6.22182,0.71232 12.456657,1.32751 18.696426,1.86124 5.286285,0.45219 10.585664,0.76171 15.882909,1.07193 3.945114,0.23106 7.894962,0.39496 11.844736,0.52883 3.868661,0.13112 7.740219,0.27171 11.609927,0.25696 7.661651,-0.0292 15.322911,-0.16261 23.091081,-0.24704 0.39156,0.0103 0.67637,0.0146 0.96151,0.11849 0.16958,0.54691 0.27909,1.02931 0.5174,1.43629 2.2575,3.85544 4.37542,7.80563 6.8484,11.51883 3.58948,5.38963 8.02749,10.0869 12.98504,14.24055 5.11833,4.28836 10.63973,8.00631 16.6646,10.94039 0.33892,0.16505 0.54616,0.60046 0.70724,0.92857 -0.36133,0.0885 -0.61138,0.19679 -0.8697,0.22281 -4.48816,0.45182 -8.97282,0.94749 -13.46749,1.32303 -4.9798,0.41609 -9.9661,0.76967 -14.9549,1.05835 -4.29558,0.24857 -8.59866,0.51516 -12.8984,0.51494 -10.74109,-5.3e-4 -21.482298,-0.13676 -32.223156,-0.24692 -2.062398,-0.0211 -4.126413,-0.12932 -6.184538,-0.27168 -4.590645,-0.31754 -9.178882,-0.67127 -13.766469,-1.03097 -3.320351,-0.26035 -6.645915,-0.48324 -9.955154,-0.84944 -4.871723,-0.53909 -9.736667,-1.14891 -14.593848,-1.8072 -4.422986,-0.59943 -8.834178,-1.28804 -13.246062,-1.96662 -3.545302,-0.54528 -7.083867,-1.13436 -10.735817,-1.71219 -3.17523,-0.61627 -6.2229401,-1.34737 -9.3125601,-1.77739 -1.41653,-0.19716 -1.68849,-0.746 -1.70673,-2.0049 -0.0202,-1.39088 -0.31699,-2.77776 -0.49332,-4.16638 z"
     id="path2"
     style="stroke-width:0.264583" /><path
     fill="#ffcc00"
     opacity="1"
     stroke="none"
     d="m 182.21526,202.5468 c 0.40133,-0.0681 0.80266,-0.13615 1.56416,-0.26531 -1.31633,1.65516 -2.36686,3.1157 -3.56083,4.44768 -2.30557,2.57209 -4.52537,5.25707 -7.08419,7.55776 -3.83085,3.44436 -7.83906,6.70758 -11.92766,9.84476 -4.45784,3.42043 -9.35735,6.18602 -14.44542,8.55066 -7.18661,3.33991 -14.59001,6.13236 -22.45118,7.42509 -4.73185,0.77813 -9.50651,1.296 -14.31539,2.03184 -4.02775,0.10102 -8.00203,0.10102 -12.153653,2.6e-4 -3.494498,-0.47378 -6.858239,-0.61553 -10.118215,-1.27231 -5.30511,-1.06882 -10.621097,-2.21815 -15.787489,-3.80547 -5.892024,-1.81027 -11.436487,-4.54228 -16.849129,-7.52241 -8.071376,-4.44398 -15.256483,-10.06169 -21.779976,-16.509 -2.870609,-2.83709 -5.364677,-6.05516 -7.923103,-9.11763 0.964143,0.1521 1.818627,0.33927 2.679704,0.48832 7.291261,1.26217 14.573525,2.58097 21.879362,3.75262 4.968383,0.7968 9.960649,1.46869 14.959972,2.04162 4.785921,0.54848 9.588675,0.9877 14.395101,1.30979 5.562531,0.37276 11.137053,0.7848 16.706538,0.78713 9.633778,0.004 19.268428,-0.26299 28.901148,-0.48432 3.20107,-0.0736 6.41105,-0.2287 9.59277,-0.57124 5.48396,-0.59042 10.95024,-1.34691 16.42165,-2.05176 8.52708,-1.09848 16.94049,-2.7997 25.28063,-4.86526 2.02707,-0.50203 4.01128,-1.17725 6.0152,-1.77282 z"
     id="path4"
     style="stroke-width:0.264583" /><path
     fill="#000066"
     opacity="1"
     stroke="none"
     d="m 107.96519,43.009059 c 0.38453,0.08817 0.63937,0.226812 0.90645,0.256932 3.98604,0.449522 7.9761,0.864087 11.96038,1.328311 5.40209,0.629419 10.58094,2.18157 15.69899,3.938825 9.07526,3.11594 17.56125,7.385771 25.26718,13.137624 3.02667,2.25918 6.01034,4.575998 9.01358,6.866568 -0.028,0.159549 -0.0559,0.319098 -0.0839,0.478645 -4.29857,0.680472 -8.59713,1.360946 -13.12236,2.050615 -3.42335,0.360632 -6.62007,0.712067 -9.90246,1.024569 -2.59094,-1.340847 -5.0962,-2.642756 -7.65514,-4.018971 -2.485,-1.081996 -4.91636,-2.08969 -7.43678,-3.137331 -2.51216,-0.796909 -4.947,-1.518798 -7.353,-2.326645 -1.09112,-0.366359 -1.83955,0.03568 -2.26605,0.925089 -1.74315,3.635159 -3.41625,7.303913 -5.23116,10.964373 -1.4723,0.089 -2.82839,0.24334 -4.1849,0.247269 -7.31015,0.02117 -14.620519,0.02685 -21.930562,-0.01085 -2.369928,-0.01222 -4.742256,-0.122515 -7.107946,-0.274357 -4.854784,-0.311618 -9.707928,-0.655031 -14.557626,-1.037534 -2.92517,-0.230711 -5.844691,-0.539869 -8.763003,-0.849141 -3.872918,-0.41044 -7.742184,-0.855384 -11.66174,-1.383725 -4.255228,-0.709457 -8.461738,-1.320692 -12.668248,-1.931927 -0.0071,-0.136667 -0.01416,-0.273333 -0.02125,-0.410001 0.329658,-0.240182 0.686991,-0.450374 0.98478,-0.725101 3.764528,-3.472991 7.889075,-6.460911 12.164586,-9.272893 5.034939,-3.311451 10.3506,-6.099546 15.906834,-8.359224 5.46508,-2.222609 11.08904,-4.026154 16.909082,-5.185494 5.252172,-1.04622 10.512308,-1.915404 15.877212,-2.04144 0.39475,-0.0093 0.786045,-0.166007 1.178948,-0.254187 2.651363,-1e-6 5.302723,-1e-6 8.078083,-1e-6 z"
     id="path5"
     style="stroke-width:0.264583" /><path
     fill="#ff6600"
     opacity="1"
     stroke="none"
     d="m 20.218256,196.75172 c -2.01677,-3.52325 -4.2149,-6.95686 -6.01079,-10.58931 -3.26765,-6.60931 -5.6450501,-13.56827 -7.3833801,-20.73717 -0.25169,-1.03799 -0.39831,-2.10146 -0.46513,-3.25774 0.39175,-0.0845 0.65909,-0.0869 0.91784,-0.0409 7.8574301,1.39577 15.6978841,2.89659 23.5759821,4.16341 5.972019,0.96031 11.985429,1.67637 17.992269,2.40318 5.573332,0.67434 11.15532,1.29774 16.746548,1.79755 5.161143,0.46135 10.335763,0.808 15.511513,1.06023 5.580409,0.27197 11.16961,0.53658 16.753935,0.51649 9.333477,-0.0336 18.666367,-0.28492 27.999007,-0.46947 2.46215,-0.0487 4.92318,-0.17449 7.38345,-0.29152 1.57991,-0.0751 3.15976,-0.17249 4.73568,-0.3063 3.71626,-0.31549 7.4312,-0.64779 11.14471,-0.9943 2.92722,-0.27314 5.85846,-0.52123 8.77548,-0.88119 4.48117,-0.55295 8.95169,-1.19234 13.53611,-1.78784 4.53558,-0.70911 8.96173,-1.42544 13.49337,-2.1427 5.03398,-0.95439 9.96042,-1.91887 14.89392,-2.84571 0.54407,-0.10221 1.12863,0.0111 1.69442,0.0245 -1.06667,4.08824 -1.95164,8.23468 -3.23893,12.25222 -2.45379,7.65813 -6.04337,14.81506 -10.34173,21.59974 -0.3811,0.60155 -1.54939,0.70442 -2.56676,1.04141 -0.34682,0.005 -0.48496,-0.0182 -0.61026,0.0121 -11.66869,2.82482 -23.41871,5.22188 -35.35088,6.63566 -6.12774,0.72602 -12.2559,1.46575 -18.39865,2.04178 -4.36426,0.40923 -8.75031,0.632 -13.13193,0.7979 -4.74665,0.17972 -9.49917,0.23382 -14.24967,0.26823 -2.14937,0.0156 -4.300122,-0.14681 -6.450105,-0.23233 -2.017755,-0.0803 -4.037139,-0.1348 -6.0526,-0.25452 -5.734534,-0.34067 -11.470788,-0.66275 -17.199782,-1.08217 -3.841565,-0.28124 -7.685844,-0.60916 -11.50384,-1.10804 -5.156808,-0.67385 -10.304399,-1.44607 -15.428753,-2.33313 -6.030791,-1.04399 -12.036653,-2.2346 -18.044989,-3.40443 -2.918479,-0.56824 -5.817971,-1.23401 -8.726055,-1.85563 z"
     id="path8"
     style="stroke-width:0.264583" /><path
     fill="#ce9108"
     opacity="1"
     stroke="none"
     d="m 20.258216,196.83516 c 2.868124,0.53818 5.767616,1.20395 8.686095,1.7722 6.008336,1.16982 12.014198,2.36043 18.044989,3.40443 5.124354,0.88705 10.271945,1.65928 15.428753,2.33312 3.817996,0.49889 7.662275,0.82681 11.50384,1.10804 5.728994,0.41942 11.465248,0.74151 17.199782,1.08217 2.015461,0.11973 4.034845,0.17428 6.0526,0.25452 2.149983,0.0855 4.300735,0.2479 6.450105,0.23234 4.7505,-0.0344 9.50302,-0.0885 14.24967,-0.26824 4.38162,-0.16589 8.76767,-0.38867 13.13193,-0.7979 6.14275,-0.57603 12.27091,-1.31576 18.39865,-2.04178 11.93217,-1.41377 23.68219,-3.81083 35.35088,-6.63566 0.1253,-0.0303 0.26344,-0.008 0.50543,-0.002 -0.93344,1.70103 -1.97674,3.39487 -3.03286,5.17973 -2.01674,0.68661 -4.00095,1.36183 -6.02802,1.86387 -8.34014,2.06555 -16.75355,3.76677 -25.28063,4.86525 -5.47141,0.70485 -10.93769,1.46135 -16.42165,2.05177 -3.18172,0.34253 -6.3917,0.49767 -9.59277,0.57123 -9.63272,0.22134 -19.26737,0.48831 -28.901148,0.48432 -5.569485,-0.002 -11.144007,-0.41436 -16.706538,-0.78713 -4.806426,-0.32209 -9.60918,-0.7613 -14.395101,-1.30978 -4.999323,-0.57294 -9.991589,-1.24483 -14.959972,-2.04163 -7.305837,-1.17165 -14.588101,-2.49045 -21.879362,-3.75261 -0.861077,-0.14905 -1.715561,-0.33622 -2.679704,-0.48833 -1.766074,-2.31978 -3.425537,-4.65695 -5.124969,-7.07755 z"
     id="path12"
     style="stroke-width:0.264583" /><path
     fill="#692757"
     opacity="1"
     stroke="none"
     d="m 176.32892,74.236885 c 2.49556,2.968942 5.11164,5.846537 7.45137,8.93359 2.15909,2.848748 4.12622,5.858333 5.99164,8.910892 3.24769,5.314439 5.77454,10.986773 7.90159,16.836833 0.0715,0.19673 0.0738,0.41864 0.1185,0.69068 -3.47327,0.38195 -6.89895,0.75866 -10.55591,1.137 -1.35058,0.0895 -2.47742,0.12473 -3.58667,0.283 -0.78556,0.11208 -1.54737,0.3905 -2.37502,0.5747 -0.0552,-0.02 -0.16278,-0.0675 -0.16843,-0.16554 -2.29032,-4.44361 -4.575,-8.78919 -6.87879,-13.224259 -0.78192,-1.145918 -1.54471,-2.202331 -2.31543,-3.344928 -0.71537,-0.991945 -1.42282,-1.897709 -2.14696,-2.887785 -0.61093,-0.785254 -1.20515,-1.486193 -1.82966,-2.27213 -0.67187,-0.803778 -1.31347,-1.522561 -1.98448,-2.32188 -0.77021,-0.83062 -1.51099,-1.580714 -2.2939,-2.409913 -1.16455,-1.113586 -2.28698,-2.14807 -3.43261,-3.265289 -1.42362,-1.24265 -2.82401,-2.402554 -4.26596,-3.635057 -0.39466,-0.427892 -0.74775,-0.783188 -0.98059,-1.156978 0.98581,-0.114917 1.85239,-0.202727 2.71666,-0.30928 3.23714,-0.399089 6.47441,-0.797232 9.70991,-1.20931 2.97608,-0.379034 5.94991,-0.775538 8.92474,-1.164346 z"
     id="path13"
     style="stroke-width:0.264583" /><path
     fill="#a3365a"
     opacity="1"
     stroke="none"
     d="m 199.59359,115.23459 c 0.63119,2.44471 1.3396,4.87276 1.87173,7.33885 0.52557,2.43566 0.92175,4.90266 1.28095,7.36956 0.23111,1.58718 0.36987,3.19681 0.41524,4.8002 0.10815,3.8223 0.13768,7.64684 0.19512,11.47052 0.007,0.44004 0.009,0.88184 -0.0207,1.32043 -0.17001,2.46898 -0.31435,4.94108 -0.57502,7.40071 -0.0315,0.29728 -0.6799,0.67505 -1.09563,0.76251 -3.14636,0.66191 -6.30601,1.26064 -9.68363,1.8804 -2.0094,0.26091 -3.7967,0.52053 -5.58216,0.66537 0.0932,-1.26896 0.18458,-2.42314 0.31764,-3.67569 0.18998,-1.62072 0.33826,-3.14308 0.52898,-4.7669 0.0988,-1.35787 0.15514,-2.61428 0.21597,-3.99422 7.9e-4,-1.62876 -0.003,-3.13399 -10e-4,-4.7621 -0.0939,-1.89436 -0.19272,-3.66584 -0.29368,-5.546 -0.22996,-1.62842 -0.45778,-3.14815 -0.69928,-4.78173 -0.19923,-1.1795 -0.38476,-2.24514 -0.57269,-3.42011 -0.28249,-1.35925 -0.56258,-2.60914 -0.84408,-3.96107 -0.44726,-1.84293 -0.8931,-3.58384 -1.27725,-5.42024 2.21449,-0.42677 4.37048,-0.73892 6.51937,-1.09389 3.10284,-0.51257 6.20054,-1.05622 9.30043,-1.5866 z"
     id="path14"
     style="stroke-width:0.264583" /><path
     fill="#442447"
     opacity="1"
     stroke="none"
     d="m 176.3224,74.134367 c -2.96831,0.491326 -5.94214,0.88783 -8.91822,1.266864 -3.2355,0.412078 -6.47277,0.810221 -9.70991,1.20931 -0.86427,0.106553 -1.73085,0.194363 -2.79077,0.295294 -0.29446,-0.01135 -0.39455,-0.02719 -0.53942,-0.120108 -2.22341,-1.529474 -4.40202,-2.981886 -6.57968,-4.489643 0.001,-0.05534 0.004,-0.166002 0.004,-0.166002 3.1967,-0.351436 6.39342,-0.702871 9.70512,-1.050708 1.58874,0.170582 3.06068,0.35592 4.53658,0.501113 4.48837,0.44156 9.01308,0.648134 13.3383,2.115764 0.31715,0.107617 0.63147,0.223541 0.95364,0.438116 z"
     id="path20"
     style="stroke-width:0.264583" /><path
     fill="#70164c"
     opacity="1"
     stroke="none"
     d="m 199.58532,115.14376 c -3.09162,0.62121 -6.18932,1.16486 -9.29216,1.67743 -2.14889,0.35497 -4.30488,0.66712 -6.57541,1.06258 -0.11773,0.0642 -0.22736,-0.003 -0.23545,-0.10173 -0.41361,-1.18596 -0.81912,-2.27311 -1.24334,-3.45989 -0.31556,-0.96596 -0.61243,-1.83229 -0.90931,-2.69861 0.77242,-0.20416 1.53423,-0.48258 2.31979,-0.59466 1.10925,-0.15827 2.23609,-0.19354 3.47088,-0.27703 2.07061,0.44066 4.05221,0.78493 5.97408,1.33705 2.2962,0.65967 4.69838,1.15675 6.49092,3.05486 z"
     id="path21"
     style="stroke-width:0.264583" /><path
     fill="#a15616"
     opacity="1"
     stroke="none"
     d="m 186.39761,158.35791 c 1.78729,-0.25961 3.57458,-0.51923 5.47604,-0.7703 1.8565,0.44104 3.62905,0.78085 5.33134,1.33615 1.29852,0.42358 2.56369,1.02937 3.72771,1.74324 0.4254,0.26089 0.51641,1.067 0.67023,1.66515 -0.65553,0.0274 -1.24009,-0.0859 -1.78416,0.0163 -4.9335,0.92683 -9.85994,1.89132 -14.89394,2.74194 -0.0654,-0.35986 -0.0372,-0.61937 0.0166,-0.87349 0.3951,-1.86769 0.79528,-3.73431 1.22425,-5.65632 0.0858,-0.12035 0.15298,-0.16956 0.23198,-0.20267 z"
     id="path22"
     style="stroke-width:0.264583" /><path
     fill="#a15616"
     opacity="1"
     stroke="none"
     d="m 171.32209,167.32964 c -4.47503,0.60271 -8.94555,1.2421 -13.42672,1.79506 -2.91702,0.35996 -5.84826,0.60804 -8.77548,0.88118 -3.71351,0.34651 -7.42845,0.67881 -11.14471,0.99431 -1.57592,0.1338 -3.15577,0.23114 -4.73568,0.30629 -2.46027,0.11703 -4.9213,0.24284 -7.38345,0.29152 -9.33264,0.18455 -18.66553,0.4359 -27.999007,0.46947 -5.584325,0.0201 -11.173526,-0.24452 -16.753935,-0.51648 -5.17575,-0.25223 -10.35037,-0.59889 -15.511513,-1.06024 -5.591228,-0.49981 -11.173216,-1.12321 -16.746548,-1.79755 -6.00684,-0.72681 -12.02025,-1.44287 -17.992269,-2.40318 -7.878098,-1.26682 -15.718552,-2.76764 -23.5759821,-4.16341 -0.25875,-0.046 -0.52609,-0.0436 -0.89891,-0.0702 -0.39464,-1.81613 1.19242,-2.11777 2.22378,-2.45618 2.3774401,-0.78005 4.8632901,-1.22964 7.3495101,-1.91028 3.58591,0.47266 7.124475,1.06174 10.669777,1.60702 4.411884,0.67858 8.823076,1.36719 13.246062,1.96662 4.857181,0.65828 9.722125,1.26811 14.593848,1.8072 3.309239,0.3662 6.634803,0.58909 9.955154,0.84943 4.587587,0.35971 9.175824,0.71344 13.766469,1.03098 2.058125,0.14235 4.12214,0.25054 6.184538,0.27168 10.740858,0.11015 21.482066,0.24637 32.223156,0.24692 4.29974,2.2e-4 8.60282,-0.26637 12.8984,-0.51494 4.9888,-0.28869 9.9751,-0.64226 14.9549,-1.05835 4.49467,-0.37554 8.97933,-0.87121 13.46749,-1.32304 0.25832,-0.026 0.50837,-0.13427 0.98528,-0.22021 0.76179,-0.0242 1.30058,-0.0324 1.87852,0.0446 0.38105,0.34957 0.68426,0.71872 1.07099,0.86136 2.83036,1.04396 5.68603,2.01967 8.50932,3.08177 0.39098,0.14707 0.64799,0.65028 0.96701,0.98861 z"
     id="path23"
     style="stroke-width:0.264583" /><path
     fill="#70164c"
     opacity="1"
     stroke="none"
     d="m 8.2020859,115.27621 c 1.195,-1.45239 3.0437501,-1.57031 4.7445901,-1.85316 3.85722,-0.64142 7.746011,-1.09249 11.62052,-1.63134 0.332219,-0.0462 0.653669,-0.16983 1.216474,-0.25938 5.335093,0.4344 10.432752,0.88385 15.532902,1.30303 4.579647,0.3764 9.159573,0.75559 13.743892,1.06721 4.58972,0.31199 9.183447,0.57402 13.778325,0.79845 4.469937,0.21835 8.942573,0.39419 13.415846,0.52796 4.393814,0.13138 8.790123,0.26795 13.184952,0.25631 7.126903,-0.0189 14.253493,-0.15692 21.468463,-0.24442 0.20592,5.3e-4 0.32358,0.001 0.45139,0.0957 0.71462,1.77324 1.44806,3.44078 2.11139,5.13575 0.33377,0.85284 1.12929,1.64471 0.5189,2.68931 -7.66142,0.0903 -15.32268,0.22373 -22.984331,0.25293 -3.869708,0.0148 -7.741266,-0.12583 -11.609927,-0.25695 -3.949774,-0.13387 -7.899622,-0.29777 -11.844736,-0.52883 -5.297245,-0.31022 -10.596624,-0.61974 -15.882909,-1.07193 -6.239769,-0.53373 -12.474606,-1.14892 -18.696426,-1.86124 -5.129414,-0.58726 -10.240445,-1.3415 -15.35278,-2.06977 -4.982465,-0.70977 -9.956315,-1.48008 -14.9335051,-2.22671 -0.12903,-0.0194 -0.25296,-0.0727 -0.48303,-0.12297 z"
     id="path24"
     style="stroke-width:0.264583" /><path
     fill="#a94365"
     opacity="1"
     stroke="none"
     d="m 160.73561,162.3126 c -0.53878,0.008 -1.07757,0.0165 -1.73192,0.0221 -0.3841,-0.31215 -0.59134,-0.74755 -0.93026,-0.9126 -6.02487,-2.93408 -11.54627,-6.65204 -16.6646,-10.94039 -4.95755,-4.15365 -9.39556,-8.85092 -12.98504,-14.24055 -2.47298,-3.71321 -4.5909,-7.66339 -6.8484,-11.51883 -0.23831,-0.40699 -0.34782,-0.88939 -0.39406,-1.43985 2.76939,-0.20144 5.41575,-0.29983 8.16923,-0.38931 0.39242,0.0116 0.67774,0.0144 0.97281,0.11268 3.31589,7.02747 7.93916,12.95978 13.43293,18.30646 3.93159,3.8263 8.22023,7.12322 12.9099,9.9233 4.50354,2.68895 9.22492,4.90805 14.26196,6.42095 2.26596,0.68058 4.52675,1.37829 6.71024,2.13643 -4.01472,0.63348 -7.95027,1.19547 -11.88462,1.76558 -1.674,0.24257 -3.34552,0.50215 -5.01817,0.754 z"
     id="path25"
     style="stroke-width:0.264583" /><path
     fill="#792457"
     opacity="1"
     stroke="none"
     d="m 129.24346,122.88429 c -2.64638,0.0984 -5.29274,0.19679 -8.06246,0.29872 -0.40815,-7.9e-4 -0.69296,-0.005 -1.08452,-0.0155 0.50364,-1.05049 -0.29188,-1.84236 -0.62565,-2.6952 -0.66333,-1.69497 -1.39677,-3.36251 -1.98736,-5.13679 2.14814,-0.096 4.18241,-0.0966 6.33677,-0.0967 0.92205,1.8e-4 1.72399,-1.4e-4 2.56381,0.0877 0.57869,1.43073 1.14039,2.76534 1.65391,4.11823 0.43098,1.13543 0.8058,2.29217 1.2055,3.43948 z"
     id="path26"
     style="stroke-width:0.264583" /><path
     fill="#442447"
     opacity="1"
     stroke="none"
     d="m 31.897517,74.007113 c 1.498182,-0.452631 2.968672,-1.118129 4.499824,-1.317313 4.30951,-0.560612 8.643972,-0.929391 13.087569,-1.388031 3.989809,0.415894 7.859075,0.860838 11.731993,1.271278 2.918312,0.309272 5.837833,0.618429 8.763003,0.849141 4.849698,0.382503 9.702842,0.725916 14.557626,1.037534 2.36569,0.151842 4.738018,0.262134 7.107946,0.274357 7.310043,0.03771 14.620412,0.03202 21.930562,0.01085 1.35651,-0.0039 2.7126,-0.158268 4.25469,-0.232418 0.23227,0.02096 0.27874,0.03112 0.32121,0.145045 -0.10924,0.649883 -0.19897,1.199578 -0.32309,1.741397 -0.23852,1.041218 -0.49652,2.077966 -0.85194,3.117887 -0.38685,0.0043 -0.66819,0.0074 -1.07278,0.0077 -1.60985,0.08363 -3.09718,0.253879 -4.58292,0.241031 -5.22978,-0.04522 -10.45921,-0.142434 -15.688368,-0.241195 -3.77662,-0.07133 -7.55286,-0.166566 -11.328768,-0.269809 -2.675829,-0.07316 -5.351497,-0.161113 -8.025873,-0.274794 -1.355498,-0.05762 -2.709275,-0.171386 -4.061542,-0.286549 -3.920956,-0.33393 -7.84143,-0.673948 -11.760795,-1.025977 C 57.450485,77.397309 54.44117,77.156721 51.444243,76.810852 47.453233,76.35026 43.467479,75.836119 39.489251,75.27556 36.949519,74.917695 34.427486,74.434243 31.897517,74.007097 Z"
     id="path28"
     style="stroke-width:0.264583" /><path
     fill="#0f0f6f"
     opacity="1"
     stroke="none"
     d="m 118.15592,74.553813 c -0.0464,-0.01019 -0.0929,-0.02035 -0.20917,-0.04538 1.6291,-3.671231 3.3022,-7.339985 5.04535,-10.975144 0.4265,-0.889414 1.17493,-1.291448 2.26605,-0.925089 2.406,0.807846 4.84084,1.529736 7.35012,2.423463 -0.0621,0.440502 -0.19876,0.750568 -0.36047,1.046985 -1.43585,2.631734 -2.87613,5.261056 -4.42442,7.906173 -0.58263,0.08781 -1.05391,0.203885 -1.52956,0.226102 -2.71206,0.126675 -5.42516,0.230981 -8.1379,0.34289 z"
     id="path29"
     style="stroke-width:0.264583" /><path
     fill="#1f1f79"
     opacity="1"
     stroke="none"
     d="m 127.93271,73.96974 c 1.43896,-2.630035 2.87924,-5.259357 4.31509,-7.891091 0.16171,-0.296417 0.2984,-0.606483 0.44956,-1.007036 2.43422,0.910874 4.86557,1.918568 7.27102,3.039434 -1.12152,1.842263 -2.21718,3.571349 -3.4307,5.307722 -2.59075,0.199038 -5.06365,0.390787 -7.64313,0.574347 -0.39168,-0.01326 -0.67676,-0.01831 -0.96184,-0.02336 z"
     id="path30"
     style="stroke-width:0.264583" /><path
     fill="#2f2f82"
     opacity="1"
     stroke="none"
     d="m 136.65554,73.411483 c 1.09566,-1.729087 2.19132,-3.458173 3.36652,-5.226133 2.58481,1.263042 5.09007,2.564951 7.68101,3.905798 0.0857,0.03893 0.0823,0.149591 -0.019,0.210037 -0.30148,0.06838 -0.50175,0.07631 -0.81781,0.07888 -2.85732,0.273013 -5.59884,0.551384 -8.44508,0.822648 -0.65836,0.06485 -1.21202,0.136811 -1.76567,0.20877 z"
     id="path31"
     style="stroke-width:0.264583" /><path
     fill="#692757"
     opacity="1"
     stroke="none"
     d="m 31.808154,74.00801 c 2.619332,0.426249 5.141365,0.909701 7.681097,1.267566 3.978228,0.560559 7.963982,1.0747 11.954992,1.535292 2.996927,0.345869 6.006242,0.586457 9.011621,0.856395 3.919365,0.352028 7.839839,0.692047 11.760795,1.025975 1.352267,0.115163 2.706044,0.228926 4.061542,0.286549 2.674376,0.113681 5.350044,0.201636 8.025873,0.274794 3.775908,0.103243 7.552148,0.198477 11.328768,0.269809 5.229158,0.09876 10.458588,0.195974 15.688368,0.241194 1.48574,0.01286 2.97307,-0.157398 4.57145,-0.144394 -0.14579,0.787911 -0.47831,1.458502 -0.64901,2.168022 -1.31219,5.454259 -1.54734,11.009249 -1.30052,16.577324 0.12526,2.825664 0.46507,5.658644 0.94705,8.446974 0.49012,2.8355 1.27424,5.62019 1.92962,8.42712 -7.12672,0.0877 -14.25331,0.22579 -21.380213,0.24466 -4.394829,0.0116 -8.791138,-0.12493 -13.184952,-0.25631 -4.473273,-0.13377 -8.945909,-0.30961 -13.415846,-0.52796 -4.594878,-0.22443 -9.188605,-0.48646 -13.778325,-0.79845 -4.584319,-0.31162 -9.164245,-0.69081 -13.743892,-1.06721 -5.10015,-0.41918 -10.197809,-0.86863 -15.422303,-1.30882 -1.158724,-0.17507 -2.186538,-0.39216 -3.225626,-0.50894 -3.348647,-0.3763 -6.702217,-0.70856 -10.052097,-1.07412 -0.85757,-0.0936 -1.70855,-0.24742 -2.7221601,-0.39715 C 14.693806,96.181099 21.858302,84.274595 31.808154,74.00801 Z"
     id="path32"
     style="stroke-width:0.264583" /><path
     fill="#a66024"
     opacity="1"
     stroke="none"
     d="m 160.77477,162.39789 c 1.63349,-0.33714 3.30501,-0.59671 4.97901,-0.83929 3.93435,-0.57011 7.8699,-1.1321 11.99842,-1.7708 0.84609,-0.13849 1.50174,-0.1819 2.15078,-0.27259 2.07873,-0.29044 4.15503,-0.59839 6.23226,-0.89958 -0.39857,1.86696 -0.79876,3.73358 -1.19386,5.60127 -0.0537,0.25412 -0.082,0.51363 -0.12202,0.8744 -4.42615,0.82011 -8.8523,1.53644 -13.38788,2.24555 -0.42841,-0.34554 -0.68542,-0.84875 -1.0764,-0.99583 -2.82329,-1.06209 -5.67896,-2.0378 -8.50932,-3.08176 -0.38673,-0.14264 -0.68994,-0.51179 -1.07099,-0.86137 z"
     id="path33"
     style="stroke-width:0.264583" /><path
     fill="#986b8c"
     opacity="1"
     stroke="none"
     d="m 154.40888,76.86279 c 0.10007,0.01585 0.20016,0.03171 0.37436,0.06154 0.42721,0.369281 0.7803,0.724577 1.13617,1.238025 -3.33418,4.00947 -5.5048,8.419381 -6.67214,13.393955 -0.82575,3.518987 -0.87576,7.067806 -0.5923,10.58789 0.33048,4.104 1.4803,8.06364 3.23365,11.77268 -1.18743,0.0886 -2.2528,0.17666 -3.43719,0.26493 -0.83279,-2.7e-4 -1.54655,-8e-4 -2.26102,-0.10661 -0.0558,-0.40486 -0.0669,-0.72079 -0.17246,-1.00115 -2.23544,-5.93708 -3.48354,-11.99334 -2.77641,-18.402959 0.47741,-4.327247 1.53655,-8.446164 3.41754,-12.35478 0.75843,-1.575988 1.62257,-3.101097 2.53758,-4.691706 1.80342,-0.282165 3.50782,-0.521991 5.21222,-0.761815 z"
     id="path35"
     style="stroke-width:0.264583" /><path
     fill="#a17896"
     opacity="1"
     stroke="none"
     d="m 152.01067,113.91642 c -1.8754,-3.70858 -3.02522,-7.66822 -3.3557,-11.77222 -0.28346,-3.520085 -0.23345,-7.068904 0.5923,-10.587891 1.16734,-4.974574 3.33796,-9.384485 6.71371,-13.321356 1.43917,1.074349 2.83956,2.234253 4.22755,3.570103 -0.32674,0.543102 -0.67256,0.887979 -0.9508,1.280731 -5.51084,7.779137 -6.7042,16.2217 -3.81259,25.262443 0.54551,1.70559 1.24702,3.36128 1.7671,5.05401 -1.35982,0.0934 -2.61021,0.17271 -3.95705,0.26228 -0.47248,0.0908 -0.84849,0.17134 -1.22452,0.2519 z"
     id="path36"
     style="stroke-width:0.264583" /><path
     fill="#ad87a2"
     opacity="1"
     stroke="none"
     d="m 157.30169,113.38822 c -0.62953,-1.67871 -1.33104,-3.3344 -1.87655,-5.03999 -2.89161,-9.040743 -1.69825,-17.483306 3.81259,-25.262443 0.27824,-0.392752 0.62406,-0.737629 0.97403,-1.197993 1.15803,0.941281 2.28046,1.975765 3.3494,3.103343 -0.4585,0.417023 -0.95984,0.671123 -1.25333,1.075917 -2.36617,3.263474 -3.81136,6.939079 -4.17253,10.924723 -0.46834,5.168303 0.40207,10.142263 2.95844,14.746503 0.41803,0.75291 0.63194,1.65044 1.82597,1.43344 0.17365,-0.0316 0.45027,0.33944 0.63527,0.5609 1.20524,1.4427 2.41682,2.88088 3.58512,4.35324 0.39634,0.49951 0.67331,1.09375 0.89133,1.64649 -1.44553,0.18103 -2.77759,0.36026 -4.17862,0.5363 -0.11498,-0.005 -0.16097,-0.007 -0.20593,-0.10527 -0.14802,-0.39956 -0.25526,-0.73411 -0.45312,-1.00167 -1.09099,-1.47533 -2.3642,-2.84409 -3.25684,-4.4286 -0.66445,-1.17942 -1.44528,-1.50502 -2.63523,-1.34489 z"
     id="path37"
     style="stroke-width:0.264583" /><path
     fill="#b794ac"
     opacity="1"
     stroke="none"
     d="m 168.14491,119.73056 c -0.3315,-0.55095 -0.60847,-1.14519 -1.00481,-1.6447 -1.1683,-1.47236 -2.37988,-2.91054 -3.58512,-4.35324 -0.185,-0.22146 -0.46162,-0.59246 -0.63527,-0.5609 -1.19403,0.217 -1.40794,-0.68053 -1.82597,-1.43344 -2.55637,-4.60424 -3.42678,-9.5782 -2.95844,-14.746503 0.36117,-3.985644 1.80636,-7.661249 4.17253,-10.924723 0.29349,-0.404794 0.79483,-0.658894 1.29547,-0.996812 0.83638,0.736102 1.57716,1.486196 2.26014,2.32691 -2.14962,1.766543 -3.03502,4.174389 -3.75986,6.589815 -1.46223,4.872522 -1.10153,9.746583 0.86028,14.388973 0.75475,1.78605 1.00946,4.22013 3.62842,4.7106 0.27619,0.0517 0.47839,0.48845 0.71883,0.74286 1.1057,1.16993 2.22879,2.32399 3.31259,3.51386 0.53442,0.58671 0.99719,1.2387 1.3833,1.86492 -1.26863,0.18041 -2.42813,0.35703 -3.65627,0.53137 -0.11437,-0.004 -0.1601,-0.007 -0.20582,-0.009 z"
     id="path38"
     style="stroke-width:0.264583" /><path
     fill="#bfa0b6"
     opacity="1"
     stroke="none"
     d="m 172.1161,119.20441 c -0.49521,-0.62245 -0.95798,-1.27444 -1.4924,-1.86115 -1.0838,-1.18987 -2.20689,-2.34393 -3.31259,-3.51386 -0.24044,-0.25441 -0.44264,-0.69115 -0.71883,-0.74286 -2.61896,-0.49047 -2.87367,-2.92455 -3.62842,-4.7106 -1.96181,-4.64239 -2.32251,-9.516451 -0.86028,-14.388973 0.72484,-2.415426 1.61024,-4.823272 3.78929,-6.509284 0.72881,0.708694 1.37041,1.427477 1.95443,2.273742 -0.38294,0.478311 -0.78788,0.783055 -1.02172,1.186878 -3.32809,5.747462 -3.34339,11.655807 -0.66819,17.612167 0.80037,1.78203 1.68748,3.45133 3.59484,4.58456 2.11384,1.25589 3.86714,3.1217 5.7608,4.74136 0.24295,0.2078 0.38603,0.53238 0.481,0.84428 -0.7381,0.18942 -1.38181,0.3374 -2.14125,0.48571 -0.65601,-5.3e-4 -1.19636,-10e-4 -1.73668,-0.002 z"
     id="path39"
     style="stroke-width:0.264583" /><path
     fill="#c8acbf"
     opacity="1"
     stroke="none"
     d="m 176.0884,118.67925 c -0.18934,-0.27048 -0.33242,-0.59506 -0.57537,-0.80286 -1.89366,-1.61966 -3.64696,-3.48547 -5.7608,-4.74136 -1.90736,-1.13323 -2.79447,-2.80253 -3.59484,-4.58456 -2.6752,-5.95636 -2.6599,-11.864705 0.66819,-17.612167 0.23384,-0.403823 0.63878,-0.708567 1.052,-1.101878 0.68208,0.65845 1.2763,1.359389 1.85414,2.24264 -2.3555,3.474445 -3.02027,7.201556 -2.25757,11.044785 0.75595,3.80913 1.99264,7.38202 5.68339,9.70628 2.47283,1.55726 4.66548,3.54683 7.49303,4.53439 0.2963,0.10348 0.48504,0.51494 0.60853,0.78394 -1.80034,0.17723 -3.48551,0.354 -5.1707,0.53079 z"
     id="path40"
     style="stroke-width:0.264583" /><path
     fill="#d1b9c9"
     opacity="1"
     stroke="none"
     d="m 181.37425,118.14803 c -0.23864,-0.26857 -0.42738,-0.68003 -0.72368,-0.78351 -2.82755,-0.98756 -5.0202,-2.97713 -7.49303,-4.53439 -3.69075,-2.32426 -4.92744,-5.89715 -5.68339,-9.70628 -0.7627,-3.843229 -0.0979,-7.57034 2.27427,-10.960476 0.74053,0.80777 1.44798,1.713534 2.12331,2.808774 -2.48654,5.214762 -1.46344,11.632532 2.57927,15.524202 1.02462,0.98634 2.39776,1.65633 3.69584,2.30011 1.31544,0.65236 2.7362,1.09232 4.11082,1.62532 0.40552,1.08715 0.81103,2.1743 1.11492,3.36236 -0.73385,0.18858 -1.3661,0.27623 -1.99833,0.36389 z"
     id="path41"
     style="stroke-width:0.264583" /><path
     fill="#d9c8d4"
     opacity="1"
     stroke="none"
     d="m 182.23896,114.32215 c -1.35592,-0.43337 -2.77668,-0.87333 -4.09212,-1.52569 -1.29808,-0.64378 -2.67122,-1.31377 -3.69584,-2.30011 -4.04271,-3.89167 -5.06581,-10.30944 -2.57135,-15.438021 0.80284,0.953121 1.56563,2.009534 2.24561,3.169322 -1.07852,0.988639 -0.976,2.234759 -0.89532,3.321159 0.21907,2.94968 1.35159,5.61088 3.43347,7.71145 1.18018,1.19077 2.39253,2.65075 4.44823,2.27583 0,0 0.10754,0.0475 0.16278,0.0675 0.35211,0.88629 0.64898,1.75262 0.96454,2.71857 z"
     id="path42"
     style="stroke-width:0.264583" /><path
     fill="#e0d3dd"
     opacity="1"
     stroke="none"
     d="m 181.10599,111.43804 c -2.05005,0.47297 -3.2624,-0.98701 -4.44258,-2.17778 -2.08188,-2.10057 -3.2144,-4.76177 -3.43347,-7.71145 -0.0807,-1.0864 -0.1832,-2.33252 0.91444,-3.231654 2.38661,4.331694 4.67129,8.677274 6.96161,13.120884 z"
     id="path43"
     style="stroke-width:0.264583" /><path
     fill="#af4f6f"
     opacity="1"
     stroke="none"
     d="m 186.16561,158.56058 c -2.1076,0.35624 -4.1839,0.66419 -6.26263,0.95463 -0.64904,0.0907 -1.30469,0.1341 -2.07111,0.20439 -2.37696,-0.68472 -4.63775,-1.38242 -6.90371,-2.06301 -5.03704,-1.51289 -9.75842,-3.732 -14.26196,-6.42094 -4.68967,-2.80008 -8.97831,-6.09701 -12.9099,-9.92331 -5.49377,-5.34667 -10.11704,-11.27898 -13.33112,-18.34888 2.22752,-0.28833 4.36296,-0.43867 6.56715,-0.5831 0.11454,0.0102 0.16033,0.0144 0.20476,0.12174 0.29091,0.8735 0.46516,1.71772 0.89362,2.40302 4.487,7.17668 10.06133,13.31417 17.00001,18.24996 9.49435,6.75377 19.99661,10.58188 31.58467,11.51073 -0.0914,1.15419 -0.18275,2.30837 -0.27596,3.57733 -0.0808,0.14788 -0.14802,0.19709 -0.23382,0.31744 z"
     id="path44"
     style="stroke-width:0.264583" /><path
     fill="#b45a77"
     opacity="1"
     stroke="none"
     d="m 186.71708,154.56745 c -11.62975,-0.83049 -22.13201,-4.6586 -31.62636,-11.41237 -6.93868,-4.93579 -12.51301,-11.07328 -17.00001,-18.24996 -0.42846,-0.6853 -0.60271,-1.52952 -0.77242,-2.40726 1.71632,-0.19482 3.31008,-0.28234 4.90474,-0.27146 0.0918,0.38903 0.13064,0.71051 0.28154,0.96572 3.01052,5.09209 6.9678,9.41406 11.37881,13.26949 4.34607,3.79868 9.22716,6.86831 14.5868,9.09739 5.99873,2.49485 12.20247,4.13142 18.73347,4.34302 -0.14831,1.52235 -0.29659,3.04471 -0.48657,4.66543 z"
     id="path45"
     style="stroke-width:0.264583" /><path
     fill="#b8637f"
     opacity="1"
     stroke="none"
     d="m 187.24605,149.80055 c -6.5734,-0.11013 -12.77714,-1.7467 -18.77587,-4.24155 -5.35964,-2.22908 -10.24073,-5.29871 -14.5868,-9.09739 -4.41101,-3.85543 -8.36829,-8.1774 -11.37881,-13.26949 -0.1509,-0.25521 -0.1897,-0.57669 -0.1834,-0.96941 0.2936,-0.10946 0.48992,-0.11685 0.7997,-0.11794 1.36365,-0.0764 2.61381,-0.15902 3.86475,-0.1436 0.16461,0.49835 0.26078,0.94599 0.50259,1.29179 3.19575,4.56994 7.01036,8.5621 11.41923,11.96848 6.36635,4.91875 13.50686,8.16717 21.42177,9.64703 2.35977,0.4412 4.75134,0.71233 7.12834,1.06139 -0.0564,1.25641 -0.11271,2.51282 -0.2115,3.87069 z"
     id="path46"
     style="stroke-width:0.264583" /><path
     fill="#bc6c86"
     opacity="1"
     stroke="none"
     d="m 187.46203,145.80633 c -2.38148,-0.22553 -4.77305,-0.49666 -7.13282,-0.93786 -7.91491,-1.47986 -15.05542,-4.72828 -21.42177,-9.64703 -4.40887,-3.40638 -8.22348,-7.39854 -11.41923,-11.96848 -0.24181,-0.3458 -0.33798,-0.79344 -0.43436,-1.32206 0.197,-0.20168 0.3265,-0.27505 0.57842,-0.34502 1.62881,-0.0877 3.13523,-0.17886 4.64186,-0.26497 2.2e-4,0.005 5.3e-4,0.0153 0.002,0.11316 0.93844,1.45217 1.74217,2.92668 2.83574,4.13991 4.71223,5.2278 10.24043,9.35197 16.78572,12.05135 4.98969,2.05782 10.16036,3.29181 15.55835,3.54179 0.004,1.50522 0.007,3.01045 0.006,4.63921 z"
     id="path47"
     style="stroke-width:0.264583" /><path
     fill="#c17890"
     opacity="1"
     stroke="none"
     d="m 187.46077,141.04423 c -5.40298,-0.12709 -10.57364,-1.36108 -15.56334,-3.4189 -6.54529,-2.69938 -12.07349,-6.82355 -16.78572,-12.05135 -1.09357,-1.21323 -1.8973,-2.68774 -2.71818,-4.14274 1.71256,-0.27982 3.30889,-0.45894 5.0054,-0.63656 0.30054,0.004 0.50095,0.007 0.70937,0.10257 1.09362,1.34136 2.10987,2.6593 3.27698,3.82638 4.75735,4.75726 10.44846,7.95711 16.9187,9.7054 2.88227,0.7788 5.7845,1.74516 8.86522,1.17789 0.0988,1.77147 0.1977,3.54295 0.29157,5.43731 z"
     id="path48"
     style="stroke-width:0.264583" /><path
     fill="#c7859b"
     opacity="1"
     stroke="none"
     d="m 187.16708,135.49823 c -3.0786,0.67596 -5.98083,-0.2904 -8.8631,-1.0692 -6.47024,-1.74829 -12.16135,-4.94814 -16.9187,-9.7054 -1.16711,-1.16708 -2.18336,-2.48502 -3.16145,-3.82833 1.879,-0.27515 3.65052,-0.45557 5.42202,-0.63599 0.046,0.002 0.092,0.004 0.21408,0.10011 0.30912,0.40383 0.51058,0.74467 0.77995,1.01882 3.17997,3.23659 6.97911,5.58585 11.13972,7.26533 3.40002,1.37243 6.94036,2.41421 10.7019,2.18679 0.22781,1.51972 0.45562,3.03945 0.68558,4.66787 z"
     id="path49"
     style="stroke-width:0.264583" /><path
     fill="#cd92a5"
     opacity="1"
     stroke="none"
     d="m 186.46781,130.7165 c -3.74785,0.34128 -7.28819,-0.7005 -10.68821,-2.07293 -4.16061,-1.67948 -7.95975,-4.02874 -11.13972,-7.26533 -0.26937,-0.27415 -0.47083,-0.61499 -0.71096,-1.01563 1.32492,-0.27 2.65698,-0.44923 4.10251,-0.63026 0.1592,5.2e-4 0.20493,0.003 0.32695,0.0988 0.18743,0.27838 0.25873,0.51128 0.4155,0.64049 4.98007,4.10465 10.68573,6.42553 17.12365,6.93413 0.18551,1.06564 0.37105,2.13128 0.57028,3.31078 z"
     id="path50"
     style="stroke-width:0.264583" /><path
     fill="#d39fb1"
     opacity="1"
     stroke="none"
     d="m 185.8951,127.29639 c -6.43549,-0.39927 -12.14115,-2.72015 -17.12122,-6.8248 -0.15677,-0.12921 -0.22807,-0.36211 -0.34686,-0.63822 1.15185,-0.26816 2.31135,-0.44478 3.57998,-0.62519 0.64942,-0.003 1.18977,-0.002 1.85597,0.0915 0.30279,0.3354 0.42653,0.67328 0.66461,0.80592 3.27877,1.82659 6.69157,3.24942 10.52488,3.33178 0.28008,1.2499 0.56017,2.4998 0.84264,3.85904 z"
     id="path51"
     style="stroke-width:0.264583" /><path
     fill="#daaebd"
     opacity="1"
     stroke="none"
     d="m 185.05103,123.33532 c -3.83188,0.0197 -7.24468,-1.40316 -10.52345,-3.22975 -0.23808,-0.13264 -0.36182,-0.47052 -0.5489,-0.80624 0.63354,-0.24126 1.27725,-0.38924 2.01535,-0.57866 1.77956,-0.21821 3.46473,-0.39498 5.26507,-0.57221 0.74738,-0.0881 1.37963,-0.17574 2.12157,-0.2655 0.10972,-0.002 0.21935,0.065 0.27539,0.0963 0.50188,1.77223 0.94771,3.51313 1.39497,5.35607 z"
     id="path52"
     style="stroke-width:0.264583" /><path
     fill="#765e78"
     opacity="1"
     stroke="none"
     d="m 154.36408,76.785727 c -1.6596,0.316886 -3.364,0.556713 -5.28821,0.838586 -1.90251,0.13107 -3.58523,0.220084 -5.25856,0.215112 0.72764,-1.23911 1.46243,-2.374321 2.15746,-3.53337 0.37118,-0.618972 0.67378,-1.279086 1.00733,-1.920632 0.20025,-0.0079 0.40051,-0.01588 0.70106,-0.0289 2.2789,1.447313 4.45751,2.899725 6.68092,4.429199 z"
     id="path56"
     style="stroke-width:0.264583" /><path
     fill="#70315f"
     opacity="1"
     stroke="none"
     d="m 116.90805,115.24087 c -0.74363,-2.80717 -1.52775,-5.59186 -2.01787,-8.42736 -0.48198,-2.78833 -0.82179,-5.62131 -0.94705,-8.446974 -0.24682,-5.568075 -0.0117,-11.123065 1.30052,-16.577324 0.1707,-0.70952 0.50322,-1.380111 0.77226,-2.165371 0.29281,-0.09965 0.57415,-0.102666 1.08509,-0.103947 1.9133,-0.08059 3.59701,-0.162904 5.27945,-0.134728 -0.13992,0.839078 -0.2254,1.582647 -0.42587,2.293802 -1.30313,4.622891 -1.69253,9.377776 -1.90734,14.136246 -0.0919,2.034675 0.2498,4.097295 0.48563,6.136676 0.52635,4.5517 1.16017,9.08478 3.16726,13.28648 -2.03425,5.3e-4 -4.06852,10e-4 -6.22681,0.003 -0.24169,5.3e-4 -0.35935,2.7e-4 -0.56527,-2.6e-4 z"
     id="path57"
     style="stroke-width:0.264583" /><path
     fill="#823362"
     opacity="1"
     stroke="none"
     d="m 136.92359,122.37446 c -2.13545,0.15033 -4.27089,0.30067 -6.50816,0.49343 -0.38713,0.0397 -0.67245,0.0369 -1.06487,0.0253 -0.5068,-1.15621 -0.88162,-2.31295 -1.3126,-3.44838 -0.51352,-1.35289 -1.07522,-2.6875 -1.57857,-4.19517 0.8697,-0.20216 1.70192,-0.23917 2.65769,-0.27578 1.62805,2.3e-4 3.13253,6e-5 4.67443,0.0858 0.3951,0.88648 0.76491,1.68187 1.10792,2.48867 0.68251,1.60539 1.35029,3.21704 2.02416,4.8261 z"
     id="path58"
     style="stroke-width:0.264583" /><path
     fill="#773b66"
     opacity="1"
     stroke="none"
     d="m 128.99354,114.97346 c -0.83223,0.037 -1.66445,0.074 -2.57202,0.18799 -0.87729,0.0773 -1.67923,0.0776 -2.60128,0.0774 -2.1272,-4.2022 -2.76102,-8.73528 -3.28737,-13.28698 -0.23583,-2.039381 -0.57748,-4.102001 -0.48563,-6.136676 0.21481,-4.75847 0.60421,-9.513355 1.90734,-14.136246 0.20047,-0.711155 0.28595,-1.454724 0.54905,-2.298591 1.71655,-0.205653 3.30867,-0.296013 5.01441,-0.385773 0.56832,0.0029 1.02303,0.0051 1.46541,0.10396 -1.84049,4.649436 -2.6239,9.430721 -2.86294,14.285637 -0.13305,2.702476 -0.0902,5.455777 0.27718,8.130719 0.53235,3.87622 1.42781,7.70271 2.1746,11.5492 0.12417,0.6396 0.28003,1.27305 0.42125,1.90934 z"
     id="path59"
     style="stroke-width:0.264583" /><path
     fill="#503254"
     opacity="1"
     stroke="none"
     d="m 127.40442,78.994006 c -1.59212,0.09036 -3.18424,0.180718 -4.89954,0.275873 -1.80687,0.08711 -3.49058,0.169429 -5.29836,0.2487 0.12581,-1.041656 0.38381,-2.078405 0.62233,-3.119622 0.12412,-0.541819 0.21385,-1.091515 0.32309,-1.741398 2.71672,-0.215654 5.42982,-0.31996 8.14188,-0.446635 0.47565,-0.02223 0.94693,-0.138292 1.52956,-0.226102 0.39441,-0.01003 0.67949,-0.0049 1.06592,0.107008 -0.4274,1.705329 -0.95614,3.303751 -1.48488,4.902176 z"
     id="path60"
     style="stroke-width:0.264583" /><path
     fill="#5e4261"
     opacity="1"
     stroke="none"
     d="m 127.51804,78.994604 c 0.41512,-1.599023 0.94386,-3.197445 1.47785,-4.894583 2.47814,-0.290465 4.95104,-0.482214 7.54179,-0.681252 0.67151,-0.07925 1.22516,-0.151201 1.87879,-0.12016 -0.11257,0.628473 -0.31965,1.156237 -0.53878,1.678953 -0.48821,1.164569 -0.98244,2.326622 -1.5531,3.521509 -0.2929,0.0965 -0.5069,0.161189 -0.84369,0.225105 -2.24356,0.09209 -4.36435,0.184959 -6.48512,0.277826 -0.45471,-0.0024 -0.90942,-0.0045 -1.47774,-0.0074 z"
     id="path61"
     style="stroke-width:0.264583" /><path
     fill="#6a516d"
     opacity="1"
     stroke="none"
     d="m 136.40349,78.467263 c 0.49176,-1.163079 0.98599,-2.325132 1.4742,-3.489701 0.21913,-0.522716 0.42621,-1.05048 0.6435,-1.671846 2.74626,-0.374267 5.48778,-0.652638 8.34509,-0.925653 -0.21773,0.646906 -0.52033,1.30702 -0.89151,1.925992 -0.69503,1.159049 -1.42982,2.29426 -2.25907,3.535995 -0.57222,0.184097 -1.03345,0.271592 -1.61376,0.357423 -1.97886,0.08816 -3.83866,0.177974 -5.69845,0.26779 z"
     id="path62"
     style="stroke-width:0.264583" /><path
     fill="#8f5e82"
     opacity="1"
     stroke="none"
     d="m 142.22103,78.201132 c 0.46122,-0.08749 0.92245,-0.174985 1.48531,-0.2651 1.7843,-0.09164 3.46702,-0.180649 5.27052,-0.269372 -0.69521,1.548553 -1.55935,3.073662 -2.31778,4.64965 -1.88099,3.908616 -2.94013,8.027533 -3.41754,12.35478 -0.70713,6.40962 0.54097,12.46588 2.77641,18.40296 0.10557,0.28036 0.11664,0.59629 0.0616,1.00164 -0.65426,0.19395 -1.19833,0.28192 -1.86533,0.37025 -1.27482,2e-5 -2.42674,-2.6e-4 -3.57978,-0.10705 -0.26373,-0.98259 -0.51323,-1.86301 -0.79112,-2.73438 -1.70207,-5.33683 -2.45375,-10.78052 -2.14754,-16.396517 0.22867,-4.194093 0.97768,-8.24919 2.49876,-12.15712 0.6353,-1.632228 1.34866,-3.234082 2.02653,-4.849741 z"
     id="path63"
     style="stroke-width:0.264583" /><path
     fill="#9f6387"
     opacity="1"
     stroke="none"
     d="m 157.29877,120.79318 c -1.59635,0.17912 -3.19268,0.35824 -4.90659,0.54018 -0.11757,0.003 -0.11783,-0.007 -0.12761,-0.10564 -0.19208,-0.44545 -0.37299,-0.79341 -0.5569,-1.13978 -1.04535,-1.96897 -2.09139,-3.93757 -3.13723,-5.90629 1.06538,-0.0881 2.13075,-0.17621 3.31818,-0.26477 0.49808,-0.081 0.87409,-0.16157 1.34816,-0.15456 1.25719,2.01757 2.4239,3.94311 3.56861,5.88163 0.21024,0.35604 0.3312,0.7648 0.49338,1.14923 z"
     id="path64"
     style="stroke-width:0.264583" /><path
     fill="#98587f"
     opacity="1"
     stroke="none"
     d="m 148.45143,114.18181 c 1.16485,1.96856 2.21089,3.93716 3.25624,5.90613 0.18391,0.34637 0.36482,0.69433 0.55667,1.13476 -1.49684,0.18432 -3.00326,0.27545 -4.63266,0.26441 -0.38336,-0.69129 -0.63653,-1.28371 -0.90544,-1.8689 -0.79302,-1.72574 -1.59229,-3.44862 -2.38913,-5.17262 0.54407,-0.088 1.08814,-0.17595 1.74311,-0.26441 0.82466,-7e-5 1.53842,2.6e-4 2.37121,5.2e-4 z"
     id="path65"
     style="stroke-width:0.264583" /><path
     fill="#a87192"
     opacity="1"
     stroke="none"
     d="m 157.39893,120.79468 c -0.26234,-0.38593 -0.3833,-0.79469 -0.59354,-1.15073 -1.14471,-1.93852 -2.31142,-3.86406 -3.47216,-5.89186 1.2488,-0.17714 2.49919,-0.25649 3.85901,-0.34985 1.2994,-0.17415 2.08023,0.15145 2.74468,1.33087 0.89264,1.58451 2.16585,2.95327 3.25684,4.4286 0.19786,0.26756 0.3051,0.60211 0.45312,1.00167 -1.77253,0.27635 -3.54405,0.45677 -5.43108,0.63915 -0.31592,-7.9e-4 -0.51633,-0.004 -0.81687,-0.008 z"
     id="path66"
     style="stroke-width:0.264583" /><path
     fill="#8b416d"
     opacity="1"
     stroke="none"
     d="m 136.99233,122.38036 c -0.74261,-1.61497 -1.41039,-3.22662 -2.0929,-4.832 -0.34301,-0.8068 -0.71282,-1.6022 -1.04177,-2.56224 0.42642,-0.19852 0.82411,-0.23755 1.34522,-0.27643 1.53954,2.3e-4 2.95564,2.6e-4 4.40902,0.0855 1.05754,2.11618 2.08763,4.14241 3.08844,6.18299 0.16748,0.34149 0.20793,0.74528 0.30707,1.12028 -0.19632,0.007 -0.39264,0.0148 -0.6871,0.0258 -1.69194,0.0912 -3.2857,0.17872 -5.00067,0.27048 -0.16698,-1e-5 -0.21277,-0.004 -0.32731,-0.0144 z"
     id="path67"
     style="stroke-width:0.264583" /><path
     fill="#924d76"
     opacity="1"
     stroke="none"
     d="m 143.12087,122.10477 c -0.2126,-0.38129 -0.25305,-0.78508 -0.42053,-1.12656 -1.00081,-2.04058 -2.0309,-4.06681 -3.02696,-6.25499 0.33685,-0.1974 0.6495,-0.23769 0.96215,-0.27797 1.15191,2.7e-4 2.30383,7.9e-4 3.57865,7.9e-4 0.91977,1.72364 1.71904,3.44653 2.51206,5.17227 0.26891,0.58518 0.52208,1.1776 0.78303,1.86549 -0.12892,0.17214 -0.25842,0.24551 -0.45617,0.34913 -1.31842,0.11291 -2.56858,0.19557 -3.93223,0.27193 z"
     id="path68"
     style="stroke-width:0.264583" /><path
     fill="#7e456f"
     opacity="1"
     stroke="none"
     d="m 135.07944,114.70953 c -0.39767,0.039 -0.79536,0.0781 -1.25918,0.19067 -1.57065,0.0737 -3.07513,0.0739 -4.70318,0.0737 -0.26476,-0.6367 -0.42062,-1.27015 -0.54479,-1.90975 -0.74679,-3.84649 -1.64225,-7.67298 -2.1746,-11.5492 -0.36737,-2.674942 -0.41023,-5.428243 -0.27718,-8.130719 0.23904,-4.854916 1.02245,-9.636201 2.86294,-14.285634 2.1331,-0.189432 4.25389,-0.282303 6.48745,-0.274924 -1.38101,4.228886 -2.73495,8.381387 -3.09357,12.808993 -0.43094,5.320458 -0.40023,10.608134 0.79451,15.832474 0.55639,2.43298 1.26693,4.83071 1.9076,7.24442 z"
     id="path69"
     style="stroke-width:0.264583" /><path
     fill="#875278"
     opacity="1"
     stroke="none"
     d="m 135.20288,114.70969 c -0.76411,-2.41387 -1.47465,-4.8116 -2.03104,-7.24458 -1.19474,-5.22434 -1.22545,-10.512016 -0.79451,-15.832474 0.35862,-4.427606 1.71256,-8.580107 3.21636,-12.80821 0.224,-0.164166 0.438,-0.228854 0.7309,-0.325355 1.93869,-0.121624 3.79849,-0.211442 5.77735,-0.299598 -0.55878,1.617318 -1.27214,3.219172 -1.90744,4.8514 -1.52108,3.90793 -2.27009,7.963027 -2.49876,12.15712 -0.30621,5.615997 0.44547,11.059687 2.14754,16.396517 0.27789,0.87137 0.52739,1.75179 0.79112,2.73438 -0.31152,0.14664 -0.62417,0.18693 -0.9983,0.29919 -1.47758,0.0719 -2.89368,0.0718 -4.43322,0.0716 z"
     id="path70"
     style="stroke-width:0.264583" /></g></svg>
